#!OML:ASF H:\Terrain\Patient Classification 1\Terrain2\Thursday\justin.ASF
:FULLY-SPECIFIED
:DEGREES
3981
root -5.66294 20.4013 10.4247 301.41 81.2448 -60.3753
lowerback 12.4603 1.00289 2.7935
upperback 3.6057 1.89979 1.89701
thorax -3.17831 0.997401 0.115397
lowerneck -15.3148 0.208482 -6.25983
upperneck 35.477 3.47299 0.561728
head 14.7708 1.11989 2.02372
rclavicle 3.52843e-014 2.5842e-014
rhumerus -31.0905 -0.652612 -84.748
rradius 38.6065
rwrist -14.9629
rhand -22.8456 12.6205
rfingers 7.12502
rthumb 3.59222 -17.329
lclavicle 3.52843e-014 2.5842e-014
lhumerus -32.441 4.24001 80.6299
lradius 37.7387
lwrist 7.30564
lhand -19.4114 19.6768
lfingers 7.12502
lthumb 6.90808 49.5441
rfemur -10.8564 -8.71912 25.3056
rtibia 58.7148
rfoot -15.8568 -9.34025
rtoes 11.1608
lfemur -29.7342 5.7625 -14.703
ltibia 41.5634
lfoot -9.30558 -13.9453
ltoes 11.1385
3982
root -5.59923 20.4371 10.4122 301.343 81.5457 -60.4915
lowerback 12.3524 0.82143 2.46647
upperback 3.54166 1.61095 1.86174
thorax -3.19915 0.852522 0.306524
lowerneck -15.4156 0.322538 -6.34285
upperneck 35.5304 3.62819 0.688448
head 14.806 1.1877 2.11872
rclavicle 1.78906e-015 -1.19271e-015
rhumerus -31.1206 -0.464907 -84.8104
rradius 38.9828
rwrist -14.7153
rhand -22.8145 12.2817
rfingers 7.12502
rthumb 3.6222 -17.6673
lclavicle 1.78906e-015 -1.19271e-015
lhumerus -33.0711 5.73206 80.1117
lradius 39.1619
lwrist 6.37139
lhand -19.346 19.979
lfingers 7.12502
lthumb 6.97111 49.8442
rfemur -11.7944 -9.07106 25.1513
rtibia 59.4334
rfoot -16.6626 -9.0818
rtoes 9.04325
lfemur -29.1829 5.91589 -15.1202
ltibia 40.7457
lfoot -9.43272 -14.0652
ltoes 8.00086
3983
root -5.53474 20.4716 10.4065 300.614 81.5636 -61.252
lowerback 12.265 0.735907 2.44895
upperback 3.44634 1.49454 1.92765
thorax -3.25453 0.792406 0.402757
lowerneck -15.3373 0.313776 -6.75848
upperneck 35.4903 3.62607 0.985673
head 14.7533 1.17437 2.31067
rclavicle -1.33186e-014 3.57812e-015
rhumerus -31.2329 -0.431176 -84.7953
rradius 39.3483
rwrist -14.7017
rhand -23.1299 12.008
rfingers 7.12502
rthumb 3.31763 -17.9459
lclavicle -1.33186e-014 3.57812e-015
lhumerus -32.9046 4.98872 80.2818
lradius 39.1097
lwrist 7.23927
lhand -19.7174 19.4771
lfingers 7.12502
lthumb 6.61263 49.3539
rfemur -12.6334 -9.07878 25.3933
rtibia 59.9626
rfoot -17.7467 -8.86622
rtoes 7.59674
lfemur -28.5892 6.19127 -15.1747
ltibia 39.9191
lfoot -9.28157 -14.3046
ltoes 7.35499
3984
root -5.46056 20.5084 10.4078 300.823 81.7744 -60.8437
lowerback 12.2482 0.827219 2.17975
upperback 3.45664 1.58058 1.91924
thorax -3.24082 0.83587 0.533106
lowerneck -15.1853 0.184594 -6.89903
upperneck 35.3343 3.4447 1.00191
head 14.6529 1.08687 2.30475
rclavicle 2.06736e-014 8.34896e-015
rhumerus -31.3603 -0.78841 -84.6236
rradius 39.7338
rwrist -14.7471
rhand -23.1246 12.074
rfingers 7.12502
rthumb 3.32281 -17.8798
lclavicle 2.06736e-014 8.34896e-015
lhumerus -32.5443 3.92542 80.6056
lradius 38.9478
lwrist 7.83784
lhand -20.2291 19.2595
lfingers 7.12502
lthumb 6.1186 49.1512
rfemur -13.0589 -9.0071 25.2969
rtibia 60.2808
rfoot -18.766 -8.45054
rtoes 6.84676
lfemur -27.6624 6.37757 -15.4448
ltibia 39.1207
lfoot -9.26845 -14.4619
ltoes 7.15641
3985
root -5.39165 20.5415 10.4083 300.453 82.0596 -61.1812
lowerback 12.0997 0.746286 1.68314
upperback 3.42063 1.40885 1.97996
thorax -3.21157 0.751175 0.903083
lowerneck -15.1828 0.22167 -6.74525
upperneck 35.3487 3.52695 0.797641
head 14.6643 1.11388 2.20755
rclavicle -2.5842e-015 -4.37326e-015
rhumerus -31.4718 -0.528501 -84.5765
rradius 40.1793
rwrist -14.8287
rhand -22.7165 12.1484
rfingers 7.12502
rthumb 3.7169 -17.7989
lclavicle -2.5842e-015 -4.37326e-015
lhumerus -32.516 4.04463 80.6159
lradius 39.2407
lwrist 7.98306
lhand -20.3212 19.4655
lfingers 7.12502
lthumb 6.02973 49.3597
rfemur -13.6426 -9.07268 25.1985
rtibia 60.4036
rfoot -19.5736 -7.81374
rtoes 6.86855
lfemur -27.0016 6.44908 -15.7544
ltibia 38.3775
lfoot -9.28585 -14.5994
ltoes 6.3764
3986
root -5.3353 20.5643 10.4008 300.385 82.3357 -61.4303
lowerback 11.9257 0.629566 1.26287
upperback 3.29895 1.19473 1.97454
thorax -3.25051 0.643111 1.16682
lowerneck -15.3433 0.312408 -6.49588
upperneck 35.5477 3.66335 0.667306
head 14.7956 1.18044 2.14163
rclavicle 3.67752e-015 9.54166e-015
rhumerus -31.5873 -0.118007 -84.6832
rradius 40.626
rwrist -15.0357
rhand -22.8026 11.8719
rfingers 7.12502
rthumb 3.63368 -18.0769
lclavicle 3.67752e-015 9.54166e-015
lhumerus -32.4529 4.31423 80.4307
lradius 39.5104
lwrist 8.18816
lhand -20.1498 19.4159
lfingers 7.12502
lthumb 6.19521 49.3053
rfemur -14.5107 -9.08213 25.1378
rtibia 60.3194
rfoot -20.3122 -7.23564
rtoes 6.74707
lfemur -26.6947 6.46038 -16.0973
ltibia 37.7111
lfoot -9.41904 -14.5371
ltoes 4.95359
3987
root -5.27658 20.5813 10.3917 300.264 82.5961 -61.5696
lowerback 11.8958 0.58438 1.00814
upperback 3.27038 1.10003 1.92651
thorax -3.26641 0.59604 1.27427
lowerneck -15.5083 0.316116 -6.49954
upperneck 35.6007 3.68066 0.675825
head 14.8577 1.18358 2.15313
rclavicle 9.44227e-015 3.97569e-015
rhumerus -31.5733 -0.221536 -84.6332
rradius 40.8771
rwrist -14.9133
rhand -22.9097 11.7766
rfingers 7.12502
rthumb 3.53032 -18.1739
lclavicle 9.44227e-015 3.97569e-015
lhumerus -32.3012 4.10531 80.3513
lradius 39.8372
lwrist 8.49105
lhand -20.3561 19.4441
lfingers 7.12502
lthumb 5.99605 49.3393
rfemur -15.1023 -9.02345 25.0478
rtibia 60.0171
rfoot -21.1034 -6.70426
rtoes 6.22405
lfemur -26.2337 6.45789 -16.4134
ltibia 37.1556
lfoot -9.63538 -14.4371
ltoes 3.64912
3988
root -5.20535 20.5994 10.405 298.167 82.5885 -63.5815
lowerback 11.7839 0.511131 0.824102
upperback 3.31142 0.986633 2.07824
thorax -3.16617 0.54166 1.55376
lowerneck -15.6299 0.32335 -6.73698
upperneck 35.6005 3.73902 0.769764
head 14.8769 1.18658 2.24502
rclavicle 5.41688e-015 2.78299e-015
rhumerus -31.509 -0.230855 -84.5152
rradius 41.0469
rwrist -14.6938
rhand -22.8251 12.0564
rfingers 7.12502
rthumb 3.612 -17.8927
lclavicle 5.41688e-015 2.78299e-015
lhumerus -32.2131 3.73341 80.401
lradius 40.1693
lwrist 8.84291
lhand -20.6045 19.5138
lfingers 7.12502
lthumb 5.75621 49.4156
rfemur -15.3756 -8.92306 25.4327
rtibia 59.4999
rfoot -21.9375 -6.21606
rtoes 6.69393
lfemur -25.6702 6.96458 -16.31
ltibia 36.7172
lfoot -9.6839 -15.0663
ltoes 2.99748
3989
root -5.13483 20.6137 10.4284 296.671 82.716 -65.1373
lowerback 11.5127 0.462104 0.459202
upperback 3.26569 0.871304 2.09391
thorax -3.06804 0.483776 1.79422
lowerneck -15.6383 0.343403 -6.63768
upperneck 35.689 3.70776 0.873389
head 14.9187 1.19937 2.26868
rclavicle 7.05686e-015 1.19271e-015
rhumerus -31.6386 -0.0694868 -84.673
rradius 41.3694
rwrist -14.8755
rhand -23.0876 11.8416
rfingers 7.12502
rthumb 3.35852 -18.1117
lclavicle 7.05686e-015 1.19271e-015
lhumerus -32.1348 3.4447 80.1951
lradius 40.3841
lwrist 8.84419
lhand -20.5995 19.4016
lfingers 7.12502
lthumb 5.761 49.3033
rfemur -15.7697 -8.83533 25.7173
rtibia 58.8481
rfoot -22.8115 -5.59879
rtoes 9.23703
lfemur -25.3485 7.61899 -16.3727
ltibia 36.4171
lfoot -9.76787 -15.8888
ltoes 2.0609
3990
root -5.07729 20.618 10.4269 295.313 83.0215 -66.5049
lowerback 11.4847 0.397142 0.267456
upperback 3.19681 0.756437 2.00188
thorax -3.12218 0.425977 1.82266
lowerneck -15.5962 0.298744 -6.44637
upperneck 35.7243 3.58828 0.849256
head 14.9341 1.17141 2.20611
rclavicle -1.15295e-014 -2.0276e-014
rhumerus -31.7799 0.185398 -84.8235
rradius 41.6965
rwrist -15.2582
rhand -23.3591 11.4495
rfingers 7.12502
rthumb 3.09629 -18.5078
lclavicle -1.15295e-014 -2.0276e-014
lhumerus -32.029 3.35644 80.0761
lradius 40.6297
lwrist 8.86355
lhand -20.7354 19.3497
lfingers 7.12502
lthumb 5.62985 49.255
rfemur -16.1602 -8.93119 25.6282
rtibia 58.0582
rfoot -23.7793 -4.54794
rtoes 12.5795
lfemur -25.0821 7.40991 -16.646
ltibia 36.2376
lfoot -10.0776 -15.8254
ltoes 1.08679
3991
root -5.03004 20.6048 10.3945 292.418 83.1545 -69.2878
lowerback 11.7479 0.268235 0.670418
upperback 3.12547 0.636075 1.93472
thorax -3.33242 0.365215 1.54104
lowerneck -15.5286 0.209829 -6.43284
upperneck 35.6455 3.46706 0.769763
head 14.8904 1.11347 2.14715
rclavicle -3.08116e-015 -4.77083e-015
rhumerus -31.8541 0.0953801 -84.7799
rradius 41.8665
rwrist -15.1732
rhand -22.9954 11.8034
rfingers 7.12502
rthumb 3.44756 -18.1485
lclavicle -3.08116e-015 -4.77083e-015
lhumerus -31.9382 3.10094 80.1963
lradius 40.9156
lwrist 9.34805
lhand -21.0338 19.3344
lfingers 7.12502
lthumb 5.34168 49.2471
rfemur -16.4913 -9.17125 25.5833
rtibia 57.1778
rfoot -24.1412 -3.7534
rtoes 11.1384
lfemur -24.8058 6.41832 -16.7185
ltibia 36.1618
lfoot -10.4246 -14.9866
ltoes 0.139851
3992
root -4.96022 20.6006 10.4296 290.05 83.1066 -71.5226
lowerback 11.6285 0.304477 0.249873
upperback 3.1364 0.638226 2.06799
thorax -3.26125 0.368304 1.91757
lowerneck -15.3439 0.13911 -6.34042
upperneck 35.501 3.34689 0.655003
head 14.7901 1.065 2.05629
rclavicle 1.19271e-015 1.74931e-014
rhumerus -31.9534 -0.458264 -84.7131
rradius 42.0054
rwrist -14.8208
rhand -22.3529 12.3232
rfingers 7.12502
rthumb 4.06796 -17.6177
lclavicle 1.19271e-015 1.74931e-014
lhumerus -31.8231 2.8315 80.1621
lradius 41.0082
lwrist 9.49326
lhand -20.9806 19.3374
lfingers 7.12502
lthumb 5.39311 49.2488
rfemur -16.4875 -8.80236 26.0731
rtibia 56.1402
rfoot -24.4425 -4.01366
rtoes 5.89822
lfemur -24.3954 6.81396 -16.4699
ltibia 36.1276
lfoot -10.6586 -15.513
ltoes 0.886128
3993
root -4.89932 20.5955 10.4382 288.152 83.4287 -73.5437
lowerback 11.306 0.245072 -0.160878
upperback 3.13479 0.504545 2.05939
thorax -3.0846 0.301409 2.16014
lowerneck -15.2475 0.120827 -6.2969
upperneck 35.3229 3.32336 0.529747
head 14.6902 1.04726 1.98613
rclavicle -6.95746e-016 9.93923e-015
rhumerus -31.9081 -0.589363 -84.6592
rradius 42.1756
rwrist -14.8059
rhand -22.3243 12.6076
rfingers 7.12502
rthumb 4.09564 -17.3328
lclavicle -6.95746e-016 9.93923e-015
lhumerus -31.5993 2.85075 80.0834
lradius 41.1495
lwrist 9.40138
lhand -20.5039 19.4766
lfingers 7.12502
lthumb 5.85331 49.3758
rfemur -16.8509 -8.86139 25.9991
rtibia 55.1239
rfoot -24.9517 -3.60487
rtoes 2.1979
lfemur -24.3395 6.88656 -16.7683
ltibia 36.1122
lfoot -10.8119 -15.8506
ltoes 1.1565
3994
root -4.84408 20.5859 10.4426 287.725 83.9864 -74.0996
lowerback 11.1093 0.164121 -0.853554
upperback 3.11568 0.311051 1.98203
thorax -2.99094 0.205037 2.49763
lowerneck -15.3387 0.154765 -6.36903
upperneck 35.2375 3.37761 0.55198
head 14.6671 1.06145 2.01512
rclavicle -1.88845e-015 -6.75868e-015
rhumerus -31.7874 -0.35149 -84.6912
rradius 42.283
rwrist -14.8809
rhand -22.248 12.8251
rfingers 7.12502
rthumb 4.16926 -17.1139
lclavicle -1.88845e-015 -6.75868e-015
lhumerus -31.4604 2.95206 80.062
lradius 41.4712
lwrist 9.57395
lhand -20.4415 19.4291
lfingers 7.12502
lthumb 5.91359 49.3266
rfemur -17.2191 -8.96074 25.5646
rtibia 54.0479
rfoot -25.3566 -2.98414
rtoes -0.635372
lfemur -24.3123 6.60745 -17.3606
ltibia 36.1462
lfoot -11.0537 -15.7812
ltoes 0.377014
3995
root -4.78715 20.5813 10.4497 285.893 84.2724 -75.9501
lowerback 11.0702 0.121739 -1.18582
upperback 3.03275 0.212785 1.93496
thorax -3.05131 0.156781 2.65
lowerneck -15.2646 0.0958917 -6.4839
upperneck 35.2291 3.24531 0.751946
head 14.6437 1.01892 2.09447
rclavicle 3.97569e-015 1.94809e-014
rhumerus -31.9061 -0.27277 -84.7604
rradius 42.4448
rwrist -15.137
rhand -21.8704 12.659
rfingers 7.12502
rthumb 4.53389 -17.2725
lclavicle 3.97569e-015 1.94809e-014
lhumerus -31.4344 2.86997 80.1182
lradius 41.6249
lwrist 9.42115
lhand -21.1309 19.3148
lfingers 7.12502
lthumb 5.24792 49.2298
rfemur -17.3499 -8.85813 25.4352
rtibia 52.9297
rfoot -25.6068 -2.1359
rtoes -2.28162
lfemur -24.2127 6.3851 -17.6069
ltibia 36.3206
lfoot -11.4077 -15.7912
ltoes 0.178248
